# xmcd
#
# Track frame offsets:
#  150
#  10335
#  26105
#  46461
#  62963
#  79611
#  95541
#  106585
#  124455
#  136630
#  149319
#
# Disc length: 2217 seconds
#
# Revision: 0
# Processed by: cddbd v1.5.2PL0 Copyright (c) Steve Scherf et al.
# Submitted via: AltoMP3_Maker 3.0
#
DISCID=9108a70b
DTITLE=L'il Mo and the Monicats - On the Moon
DYEAR=1900
DGENRE=
TTITLE0=I Could Get Used To This
TTITLE1=Rockin' Chair To The Moon
TTITLE2=The Boy Who Loves The Blues
TTITLE3=Dance Crazed
TTITLE4=Why Don't You Live With Me?
TTITLE5=Baby Be Good
TTITLE6=I Really Love (to Really Love You)
TTITLE7=I'm Here Today
TTITLE8=I've Got A New Heartache
TTITLE9=He's A Handful
TTITLE10=Dreamy
EXTD=
EXTT0=
EXTT1=
EXTT2=
EXTT3=
EXTT4=
EXTT5=
EXTT6=
EXTT7=
EXTT8=
EXTT9=
EXTT10=
PLAYORDER=
